inDegrees=no
num_controls=7
num_derivatives=13
num_iterations=94
num_multipliers=7
num_parameters=0
num_slacks=7
num_states=26
objective=5.580097
objective_accelerations=0.803366
objective_balance=0.024512
objective_effort=0.248017
objective_height=4.404206
objective_ligament=0.099996
solver_duration=1111.316193
status=Solve_Succeeded
success=true
DataType=double
version=3
OpenSimVersion=4.4-2022-07-23-0e9fedc
endheader
time	/jointset/ground_pelvis/pelvis_tilt/value	/jointset/ground_pelvis/pelvis_tx/value	/jointset/ground_pelvis/pelvis_ty/value	/jointset/hip_l/hip_flexion_l/value	/jointset/hip_l/hip_adduction_l/value	/jointset/hip_l/hip_rotation_l/value	/jointset/back/lumbar_extension/value	/jointset/patellofemoral_l/patellar_flexion_l/value	/jointset/knee_l/knee_flexion_l/value	/jointset/knee_l/knee_adduction_l/value	/jointset/knee_l/knee_rotation_l/value	/jointset/ankle_l/ankle_angle_l/value	/jointset/subtalar_l/subtalar_angle_l/value	/jointset/ground_pelvis/pelvis_tilt/speed	/jointset/ground_pelvis/pelvis_tx/speed	/jointset/ground_pelvis/pelvis_ty/speed	/jointset/hip_l/hip_flexion_l/speed	/jointset/hip_l/hip_adduction_l/speed	/jointset/hip_l/hip_rotation_l/speed	/jointset/back/lumbar_extension/speed	/jointset/patellofemoral_l/patellar_flexion_l/speed	/jointset/knee_l/knee_flexion_l/speed	/jointset/knee_l/knee_adduction_l/speed	/jointset/knee_l/knee_rotation_l/speed	/jointset/ankle_l/ankle_angle_l/speed	/jointset/subtalar_l/subtalar_angle_l/speed	/forceset/tau_hip_flexion_l	/forceset/tau_hip_adduction_l	/forceset/tau_hip_rotation_l	/forceset/tau_knee_flexion_l	/forceset/tau_ankle_angle_l	/forceset/tau_subtalar_angle_l	/forceset/tau_lumbar_extension	lambda_cid13_p0	lambda_cid13_p1	lambda_cid13_p2	lambda_cid13_p3	lambda_cid13_p4	lambda_cid13_p5	lambda_cid14_p0	/jointset/ground_pelvis/pelvis_tilt/accel	/jointset/ground_pelvis/pelvis_tx/accel	/jointset/ground_pelvis/pelvis_ty/accel	/jointset/hip_l/hip_flexion_l/accel	/jointset/hip_l/hip_adduction_l/accel	/jointset/hip_l/hip_rotation_l/accel	/jointset/back/lumbar_extension/accel	/jointset/patellofemoral_l/patellar_flexion_l/accel	/jointset/knee_l/knee_flexion_l/accel	/jointset/knee_l/knee_adduction_l/accel	/jointset/knee_l/knee_rotation_l/accel	/jointset/ankle_l/ankle_angle_l/accel	/jointset/subtalar_l/subtalar_angle_l/accel	gamma_cid13_p0	gamma_cid13_p1	gamma_cid13_p2	gamma_cid13_p3	gamma_cid13_p4	gamma_cid13_p5	gamma_cid14_p0
0	0.05123844035528644	0.1063400850689417	0.9040606337982766	0.1266917050730164	-0.3600015812538866	-0.2352770111875553	-0.2144974744115991	0.2051547269256357	0.2051547269256735	-0.1535646407413923	-0.1652424974842137	0.09024399430361882	0.09004654717075719	0	0	0	0	0	0	0	0	0	0	0	0	0	0.1134365236277452	-0.04397908906339575	-0.004117629795821111	-0.2003227627213912	0.07216556178073544	-0.06383434724719356	-0.05469584665709365	-8.09500093013977	27.21364591614624	-2.418526998299983	28.24844683593235	-447.6616622782113	-57.77527724813051	-26.26516271061672	-6.512122786587148	-2.904362950808604	-0.9810431228467867	16.06272442390945	-0.06735901399582345	2.757274315577849	-4.342614626714338	8.490721498306229	8.490721498310117	1.977407725546283	-0.6556125835514222	-0.3306089599179103	-0.2099231484942316	1.87830307869564e-08	2.714610101110057e-07	-5.435673749392401e-08	7.730208666603998e-09	1.194719035863204e-07	1.197221819250318e-07	3.470561941375962e-08
0.01	0.05092323666776306	0.1061970484049054	0.9040129730078095	0.1274741691851935	-0.360004390364145	-0.2351359528449537	-0.214719478705104	0.2055676801179948	0.2055676801180078	-0.1534679574362063	-0.1652676566037375	0.09022621223109734	0.09003623124625698	-0.06282092979977986	-0.028429234493655	-0.009505983486320497	0.1557658559358658	-0.0005594199129075309	0.02809104449618691	-0.04405071818787213	0.08216549345653486	0.08216549345653588	0.01922482625049985	-0.004972837693998182	-0.003509332442557257	-0.00204445794272533	0.1117500942038351	-0.04995614574213852	-0.004019182787384056	-0.2007111715635604	0.0731609644817855	-0.05841319530476198	-0.05291707819370343	-7.406086292298918	24.73658098579287	-2.021289900000957	26.54188309046234	-447.9484693766381	-62.87818217706484	-26.26520279124247	-6.134109034415851	-2.785487404326775	-0.9314258760611693	15.22447054187707	-0.04990886450308887	2.816942725682977	-4.383779338084825	8.015684576784205	8.015684576782137	1.878285079812716	-0.4092866804917036	-0.3540233115898652	-0.1989346907562855	4.598971255949631e-09	3.630300382569723e-07	-2.434760615726496e-08	2.736935011875868e-08	-8.847225430172602e-08	8.836905560934932e-08	4.931348451773333e-08
0.02	0.04998641749071367	0.1057750626547973	0.9038710423995679	0.1297924827294092	-0.3600127287504514	-0.2347175994155874	-0.2153714859651436	0.2067895325063183	0.2067895325063166	-0.153182372867551	-0.1653407775639502	0.09017475124911196	0.09000602522761032	-0.1243230979092619	-0.05578981721434344	-0.01885396355489826	0.3071698864097847	-0.001105855208404838	0.05545901735413841	-0.08600059330624171	0.1617798392113191	0.1617798392113098	0.03778025270147874	-0.009592368114663283	-0.006735781891716402	-0.003978018829211288	0.1100636647794631	-0.05593320242072634	-0.003920735778398861	-0.2010995804061974	0.07415636718271397	-0.05299204336220554	-0.05113830973052948	-6.678724149878399	22.25773953772909	-1.629431989978021	24.92215322491142	-447.4690212590745	-67.83799352826431	-26.26513497998376	-6.248370448527833	-2.69063259621485	-0.94944243929824	15.19035933151979	-0.06476209051375877	2.612659987930767	-3.922446012813881	7.980491957955928	7.980491957957531	1.843527765642162	-0.5849511288846974	-0.2740323612378043	-0.1877437372461878	-9.585088275057139e-09	4.545990664029389e-07	5.661525179394099e-09	4.700849157091335e-08	-2.964164121897724e-07	5.701592929366682e-08	6.392134962170703e-08
0.03	0.04844081123109355	0.1050843004895223	0.9036360455893647	0.133604558684686	-0.3600264451110681	-0.2340298415123213	-0.216432067335288	0.2087956328143215	0.2087956328144599	-0.1527144694307842	-0.1654591644916395	0.09009205415190695	0.08995695055846627	-0.1845374870213729	-0.0822323508077564	-0.02814622537627932	0.4545502405956521	-0.001638120300565121	0.08198592125527719	-0.1258023035373196	0.2390381497530753	0.2390381497530803	0.05566899198771347	-0.01401473179308643	-0.009809231488985538	-0.005838005606802054	0.1064409954626114	-0.05379530350455291	-0.003439406070427398	-0.1986335576944315	0.07306920792397482	-0.05363062304117201	-0.04824712642236641	-6.978037092184904	22.53853333461538	-1.618285976240636	24.38857430399733	-446.5483893922481	-66.56984895090105	-26.2646868047254	-5.868868133223224	-2.601514503868283	-0.9193022106011978	14.40761404867912	-0.04763490742970866	2.656722710168602	-3.962026950592245	7.538176860873285	7.538176860874465	1.741910229606296	-0.3603461414603766	-0.3248243872653387	-0.1853621194449623	-1.678851799113312e-08	4.866736442536203e-07	1.743232966372872e-08	5.656432093633038e-08	-4.210057181445367e-07	3.478407646895125e-08	7.148585712963043e-08
